<mxfile host="65bd71144e">
    <diagram name="Investment Process" id="investment-process">
        <mxGraphModel dx="1109" dy="1111" grid="1" gridSize="10" guides="1" tooltips="1" connect="1" arrows="1" fold="1" page="1" pageScale="1" pageWidth="827" pageHeight="1169" math="0" shadow="0">
            <root>
                <mxCell id="0"/>
                <mxCell id="1" parent="0"/>
                <mxCell id="34" value="" style="rounded=1;whiteSpace=wrap;html=1;" vertex="1" parent="1">
                    <mxGeometry x="10" y="60" width="120" height="190" as="geometry"/>
                </mxCell>
                <mxCell id="13" value="&lt;span style=&quot;background-color: transparent;&quot;&gt;Portfolio Construction&lt;/span&gt;" style="rounded=1;whiteSpace=wrap;html=1;align=center;verticalAlign=top;" parent="1" vertex="1">
                    <mxGeometry x="390" y="60" width="170" height="190" as="geometry"/>
                </mxCell>
                <mxCell id="14" value="Risk Constraints" style="rounded=1;whiteSpace=wrap;html=1;" parent="13" vertex="1">
                    <mxGeometry x="10.63" y="35.63058823529412" width="149.38" height="31.42823529411765" as="geometry"/>
                </mxCell>
                <mxCell id="15" value="Signal Aggregation" style="rounded=1;whiteSpace=wrap;html=1;" parent="13" vertex="1">
                    <mxGeometry x="10.63" y="78.23529411764706" width="149.38" height="33.529411764705884" as="geometry"/>
                </mxCell>
                <mxCell id="16" value="Hedging" style="rounded=1;whiteSpace=wrap;html=1;" parent="13" vertex="1">
                    <mxGeometry x="10.63" y="122.94117647058823" width="148.75" height="33.529411764705884" as="geometry"/>
                </mxCell>
                <mxCell id="2" value="Data" style="text;html=1;fontSize=16;fontStyle=1" parent="1" vertex="1">
                    <mxGeometry x="50" y="20" width="40" height="30" as="geometry"/>
                </mxCell>
                <mxCell id="3" value="Prices" style="rounded=1;whiteSpace=wrap;html=1;" parent="1" vertex="1">
                    <mxGeometry x="20" y="70" width="100" height="30" as="geometry"/>
                </mxCell>
                <mxCell id="4" value="Volumes" style="rounded=1;whiteSpace=wrap;html=1;" parent="1" vertex="1">
                    <mxGeometry x="20" y="105" width="100" height="30" as="geometry"/>
                </mxCell>
                <mxCell id="5" value="Characteristics" style="rounded=1;whiteSpace=wrap;html=1;" parent="1" vertex="1">
                    <mxGeometry x="20" y="140" width="100" height="30" as="geometry"/>
                </mxCell>
                <mxCell id="6" value="Time Series" style="rounded=1;whiteSpace=wrap;html=1;" parent="1" vertex="1">
                    <mxGeometry x="20" y="175" width="100" height="30" as="geometry"/>
                </mxCell>
                <mxCell id="7" value="Unstructured" style="rounded=1;whiteSpace=wrap;html=1;" parent="1" vertex="1">
                    <mxGeometry x="20" y="210" width="100" height="30" as="geometry"/>
                </mxCell>
                <mxCell id="8" value="Before the Trade" style="text;html=1;fontSize=16;fontStyle=1" parent="1" vertex="1">
                    <mxGeometry x="185" y="20" width="130" height="30" as="geometry"/>
                </mxCell>
                <mxCell id="9" value="Risk" style="rounded=1;whiteSpace=wrap;html=1;" parent="1" vertex="1">
                    <mxGeometry x="200" y="90" width="100" height="30" as="geometry"/>
                </mxCell>
                <mxCell id="10" value="Expected Returns" style="rounded=1;whiteSpace=wrap;html=1;" parent="1" vertex="1">
                    <mxGeometry x="200" y="130" width="100" height="30" as="geometry"/>
                </mxCell>
                <mxCell id="11" value="Cost" style="rounded=1;whiteSpace=wrap;html=1;" parent="1" vertex="1">
                    <mxGeometry x="200" y="170" width="100" height="30" as="geometry"/>
                </mxCell>
                <mxCell id="12" value="During the Trade" style="text;html=1;fontSize=16;fontStyle=1" parent="1" vertex="1">
                    <mxGeometry x="410" y="20" width="130" height="30" as="geometry"/>
                </mxCell>
                <mxCell id="17" value="After the Trade" style="text;html=1;fontSize=16;fontStyle=1" parent="1" vertex="1">
                    <mxGeometry x="690" y="20" width="120" height="30" as="geometry"/>
                </mxCell>
                <mxCell id="18" value="PnL" style="rounded=1;whiteSpace=wrap;html=1;" parent="1" vertex="1">
                    <mxGeometry x="650" y="90" width="80" height="30" as="geometry"/>
                </mxCell>
                <mxCell id="19" value="Attribution" style="rounded=1;whiteSpace=wrap;html=1;verticalAlign=top;" parent="1" vertex="1">
                    <mxGeometry x="750" y="60" width="120" height="110" as="geometry"/>
                </mxCell>
                <mxCell id="20" value="PnL" style="rounded=1;whiteSpace=wrap;html=1;" parent="19" vertex="1">
                    <mxGeometry x="10" y="29.996428571428574" width="100" height="22.259285714285713" as="geometry"/>
                </mxCell>
                <mxCell id="21" value="Signal" style="rounded=1;whiteSpace=wrap;html=1;" parent="19" vertex="1">
                    <mxGeometry x="10" y="60.004285714285714" width="100" height="22.919285714285714" as="geometry"/>
                </mxCell>
                <mxCell id="23" value="Leverage" style="rounded=1;whiteSpace=wrap;html=1;" parent="1" vertex="1">
                    <mxGeometry x="640" y="220" width="220" height="30" as="geometry"/>
                </mxCell>
                <mxCell id="25" style="edgeStyle=orthogonalEdgeStyle;rounded=0;orthogonalLoop=1;jettySize=auto;html=1;endArrow=block;endFill=1;exitX=1;exitY=0.447;exitDx=0;exitDy=0;exitPerimeter=0;" parent="1" source="34" target="10" edge="1">
                    <mxGeometry relative="1" as="geometry">
                        <mxPoint x="140" y="145" as="sourcePoint"/>
                    </mxGeometry>
                </mxCell>
                <mxCell id="27" style="edgeStyle=orthogonalEdgeStyle;rounded=0;orthogonalLoop=1;jettySize=auto;html=1;endArrow=block;endFill=1;exitX=1;exitY=0.5;exitDx=0;exitDy=0;" parent="1" source="9" target="13" edge="1">
                    <mxGeometry relative="1" as="geometry">
                        <Array as="points">
                            <mxPoint x="340" y="105"/>
                            <mxPoint x="340" y="105"/>
                        </Array>
                    </mxGeometry>
                </mxCell>
                <mxCell id="28" style="edgeStyle=orthogonalEdgeStyle;rounded=0;orthogonalLoop=1;jettySize=auto;html=1;endArrow=block;endFill=1;exitX=1;exitY=0.5;exitDx=0;exitDy=0;" parent="1" source="10" target="13" edge="1">
                    <mxGeometry relative="1" as="geometry">
                        <Array as="points">
                            <mxPoint x="340" y="145"/>
                            <mxPoint x="340" y="145"/>
                        </Array>
                    </mxGeometry>
                </mxCell>
                <mxCell id="29" style="edgeStyle=orthogonalEdgeStyle;rounded=0;orthogonalLoop=1;jettySize=auto;html=1;endArrow=block;endFill=1;exitX=1;exitY=0.5;exitDx=0;exitDy=0;" parent="1" source="11" target="13" edge="1">
                    <mxGeometry relative="1" as="geometry">
                        <Array as="points">
                            <mxPoint x="350" y="185"/>
                            <mxPoint x="350" y="185"/>
                        </Array>
                    </mxGeometry>
                </mxCell>
                <mxCell id="30" style="edgeStyle=orthogonalEdgeStyle;rounded=0;orthogonalLoop=1;jettySize=auto;html=1;endArrow=block;endFill=1;entryX=0.008;entryY=0.141;entryDx=0;entryDy=0;entryPerimeter=0;" parent="1" source="13" target="19" edge="1">
                    <mxGeometry relative="1" as="geometry">
                        <mxPoint x="710" y="75" as="targetPoint"/>
                        <Array as="points">
                            <mxPoint x="600" y="76"/>
                            <mxPoint x="600" y="76"/>
                        </Array>
                    </mxGeometry>
                </mxCell>
                <mxCell id="31" style="edgeStyle=orthogonalEdgeStyle;rounded=0;orthogonalLoop=1;jettySize=auto;html=1;endArrow=block;endFill=1;" parent="1" source="18" target="19" edge="1">
                    <mxGeometry relative="1" as="geometry">
                        <Array as="points">
                            <mxPoint x="750" y="105"/>
                            <mxPoint x="750" y="105"/>
                        </Array>
                    </mxGeometry>
                </mxCell>
                <mxCell id="32" style="edgeStyle=orthogonalEdgeStyle;rounded=0;orthogonalLoop=1;jettySize=auto;html=1;endArrow=block;endFill=1;" parent="1" source="18" target="22" edge="1">
                    <mxGeometry relative="1" as="geometry">
                        <Array as="points">
                            <mxPoint x="700" y="150"/>
                            <mxPoint x="700" y="150"/>
                        </Array>
                    </mxGeometry>
                </mxCell>
                <mxCell id="33" style="edgeStyle=orthogonalEdgeStyle;rounded=0;orthogonalLoop=1;jettySize=auto;html=1;endArrow=block;endFill=1;" parent="1" source="18" target="23" edge="1">
                    <mxGeometry relative="1" as="geometry">
                        <Array as="points">
                            <mxPoint x="670" y="190"/>
                            <mxPoint x="670" y="190"/>
                        </Array>
                    </mxGeometry>
                </mxCell>
                <mxCell id="37" style="edgeStyle=orthogonalEdgeStyle;rounded=0;orthogonalLoop=1;jettySize=auto;html=1;endArrow=block;endFill=1;entryX=0;entryY=0.5;entryDx=0;entryDy=0;" edge="1" parent="1" target="11">
                    <mxGeometry relative="1" as="geometry">
                        <mxPoint x="130" y="185" as="sourcePoint"/>
                        <mxPoint x="210" y="155" as="targetPoint"/>
                    </mxGeometry>
                </mxCell>
                <mxCell id="38" style="edgeStyle=orthogonalEdgeStyle;rounded=0;orthogonalLoop=1;jettySize=auto;html=1;endArrow=block;endFill=1;exitX=1;exitY=0.25;exitDx=0;exitDy=0;" edge="1" parent="1" source="34" target="9">
                    <mxGeometry relative="1" as="geometry">
                        <mxPoint x="140" y="155" as="sourcePoint"/>
                        <mxPoint x="210" y="155" as="targetPoint"/>
                        <Array as="points">
                            <mxPoint x="130" y="105"/>
                        </Array>
                    </mxGeometry>
                </mxCell>
                <mxCell id="22" value="Intertemporal Volatility" style="rounded=1;whiteSpace=wrap;html=1;" parent="1" vertex="1">
                    <mxGeometry x="680" y="180" width="180" height="23.57" as="geometry"/>
                </mxCell>
                <mxCell id="40" style="edgeStyle=orthogonalEdgeStyle;rounded=0;orthogonalLoop=1;jettySize=auto;html=1;endArrow=block;endFill=1;exitX=1;exitY=0.25;exitDx=0;exitDy=0;" edge="1" parent="1" source="13">
                    <mxGeometry relative="1" as="geometry">
                        <mxPoint x="570" y="103.82" as="sourcePoint"/>
                        <mxPoint x="650" y="103.82" as="targetPoint"/>
                        <Array as="points">
                            <mxPoint x="560" y="104"/>
                        </Array>
                    </mxGeometry>
                </mxCell>
            </root>
        </mxGraphModel>
    </diagram>
</mxfile>
